<?xml version="1.0" encoding="iso-8859-1"?>
<!-- Uploaded to: SVG Repo, www.svgrepo.com, Generator: SVG Repo Mixer Tools -->
<svg version="1.1" id="Layer_1" xmlns="http://www.w3.org/2000/svg" xmlns:xlink="http://www.w3.org/1999/xlink" 
	 viewBox="0 0 512 512" xml:space="preserve">
<polygon style="fill:#ECEDEF;" points="363.958,50.772 106.355,50.772 106.355,503.983 448.401,503.983 448.401,135.215 "/>
<polygon style="fill:#F6F6F7;" points="363.958,135.215 448.401,135.215 363.958,50.772 "/>
<path style="fill:#D9DCDF;" d="M329.219,367.165H106.355V119.182h222.864c4.427,0,8.017,3.589,8.017,8.017v231.95
	C337.236,363.576,333.647,367.165,329.219,367.165z"/>
<rect x="63.599" y="93.528" style="fill:#FFC44F;" width="247.983" height="247.983"/>
<path d="M448.401,392.284c4.427,0,8.017-3.589,8.017-8.017V135.215c0-2.1-0.863-4.184-2.348-5.668l-84.443-84.443
	c-1.486-1.486-3.568-2.348-5.668-2.348H234.088V25.119C234.088,11.268,222.819,0,208.969,0h-42.756
	c-13.851,0-25.119,11.268-25.119,25.119v17.637h-34.739c-4.427,0-8.017,3.589-8.017,8.017v34.739H63.599
	c-4.427,0-8.017,3.589-8.017,8.017v51.307c0,4.427,3.589,8.017,8.017,8.017s8.017-3.589,8.017-8.017v-43.29h69.478v34.739
	c0,13.851,11.268,25.119,25.119,25.119h17.102c13.851,0,25.119-11.268,25.119-25.119v-34.739h95.132v231.95H71.616V187.591
	c0-4.427-3.589-8.017-8.017-8.017s-8.017,3.589-8.017,8.017v153.921c0,4.427,3.589,8.017,8.017,8.017h34.739v154.455
	c0,4.427,3.589,8.017,8.017,8.017h342.046c4.427,0,8.017-3.589,8.017-8.017v-76.96c0-4.427-3.589-8.017-8.017-8.017
	c-4.427,0-8.017,3.589-8.017,8.017v68.944H114.372V349.528h197.211c4.427,0,8.017-3.589,8.017-8.017v-9.086h60.392
	c4.427,0,8.017-3.589,8.017-8.017c0-4.427-3.589-8.017-8.017-8.017h-60.392v-52.376h60.392c4.427,0,8.017-3.589,8.017-8.017
	c0-4.427-3.589-8.017-8.017-8.017h-60.392v-52.376h60.392c4.427,0,8.017-3.589,8.017-8.017s-3.589-8.017-8.017-8.017h-60.392V93.528
	c0-4.427-3.589-8.017-8.017-8.017H208.434v-9.086c0-4.427-3.589-8.017-8.017-8.017s-8.017,3.589-8.017,8.017v9.086h-35.273V58.789
	h198.814v76.426c0,4.427,3.589,8.017,8.017,8.017h76.426v241.036C440.384,388.695,443.973,392.284,448.401,392.284z
	 M192.401,101.545v34.739c0,5.01-4.076,9.086-9.086,9.086h-17.102c-5.01,0-9.086-4.076-9.086-9.086v-34.739H192.401z
	 M141.094,85.511h-26.722V58.789h26.722V85.511z M157.127,25.119c0-5.01,4.076-9.086,9.086-9.086h42.756
	c5.01,0,9.086,4.076,9.086,9.086v17.637h-60.927V25.119z M371.975,127.198V70.126l57.073,57.073H371.975z"/>
<path d="M379.992,384.802H174.764c-4.427,0-8.017,3.589-8.017,8.017c0,4.427,3.589,8.017,8.017,8.017h205.228
	c4.427,0,8.017-3.589,8.017-8.017C388.008,388.391,384.419,384.802,379.992,384.802z"/>
<path d="M157.662,195.608c4.427,0,8.017-3.589,8.017-8.017s-3.589-8.017-8.017-8.017h-34.205c-4.427,0-8.017,3.589-8.017,8.017V256
	c0,4.427,3.589,8.017,8.017,8.017c4.427,0,8.017-3.589,8.017-8.017v-34.739h26.188c4.427,0,8.017-3.589,8.017-8.017
	s-3.589-8.017-8.017-8.017h-26.188v-9.62H157.662z"/>
<path d="M183.315,179.574c-4.427,0-8.017,3.589-8.017,8.017v34.205c0,4.427,3.589,8.017,8.017,8.017h9.086V256
	c0,4.427,3.589,8.017,8.017,8.017s8.017-3.589,8.017-8.017v-26.188h9.086c4.427,0,8.017-3.589,8.017-8.017v-34.205
	c0-4.427-3.589-8.017-8.017-8.017s-8.017,3.589-8.017,8.017v26.188h-18.171v-26.188
	C191.332,183.163,187.743,179.574,183.315,179.574z"/>
<path d="M243.173,247.983c-4.427,0-8.017,3.589-8.017,8.017c0,4.427,3.589,8.017,8.017,8.017h17.102
	c4.427,0,8.017-3.589,8.017-8.017c0-4.427-3.589-8.017-8.017-8.017h-0.534v-52.376h0.534c4.427,0,8.017-3.589,8.017-8.017
	s-3.589-8.017-8.017-8.017h-17.102c-4.427,0-8.017,3.589-8.017,8.017s3.589,8.017,8.017,8.017h0.534v52.376H243.173z"/>
</svg>